<svg width="80" height="80" viewBox="0 0 80 80" fill="none" xmlns="http://www.w3.org/2000/svg">
<path d="M56.1663 31.3333H44.4997V28H56.1663V31.3333ZM59.0429 48C58.3062 50.1617 55.6613 53 50.5413 53C45.4181 53 41.2681 50.1183 41.2681 43.5417C41.2681 37.025 45.1431 33.675 50.378 33.675C55.5146 33.675 58.6512 36.645 59.3362 41.0517C59.4662 41.895 59.5179 43.0317 59.4946 44.6183H46.1164C46.333 49.97 51.9213 50.1383 53.763 48H59.0429ZM46.233 41.3333H54.508C54.333 38.755 52.6146 37.635 50.3797 37.635C47.9364 37.635 46.5847 38.915 46.233 41.3333ZM30.2766 52.98H19.5V28.035H31.0882C40.2148 28.17 40.3881 37.1083 35.6215 39.545C41.3898 41.645 41.5831 52.98 30.2766 52.98ZM24.4999 38H30.4732C34.6532 38 35.3165 33 29.9532 33H24.4999V38ZM30.1516 43H24.4999V48.0267H30.0682C35.1598 48.0267 34.8482 43 30.1516 43Z" fill="#4F554D"/>
</svg>
