<svg width="80" height="80" viewBox="0 0 80 80" fill="none" xmlns="http://www.w3.org/2000/svg">
<path fill-rule="evenodd" clip-rule="evenodd" d="M39.5 20C28.4517 20 19.5 28.9582 19.5 39.9964C19.5 50.489 27.5949 59.1014 37.8777 59.9278V60H39.5C50.5483 60 59.5 51.0418 59.5 40.0036C59.5 28.9662 50.5491 20 39.5 20ZM43.9193 56.167C42.6646 56.5092 41.3512 56.7093 39.9974 56.7487H39.5C37.2426 56.7487 35.0889 56.3016 33.1229 55.4912C35.0264 48.6324 40.1867 43.7196 46.0932 41.5243C47.1125 46.4642 46.3726 51.7579 43.9193 56.167ZM45.1939 38.4C38.4527 40.828 32.5653 46.2973 30.1996 53.9304C25.7057 50.9247 22.7446 45.804 22.7446 39.9964C22.7446 37.9369 23.1165 35.9638 23.797 34.1409C25.8255 35.1516 27.9945 35.8665 30.225 36.2641C33.0664 36.785 35.9776 36.7677 38.8107 36.2569C40.4233 35.9657 41.9977 35.502 43.5073 34.8841C44.1792 36.001 44.7444 37.1781 45.1939 38.4ZM49.2205 40.6314C50.1947 45.1279 49.8992 49.8929 48.3446 54.234C52.957 51.3616 56.071 46.3101 56.2475 40.5232C53.9546 40.1075 51.5646 40.1582 49.2205 40.6314ZM56.0221 37.2019C53.4828 36.8453 50.8715 36.9612 48.3208 37.5061C47.8184 36.0967 47.1843 34.739 46.4289 33.4498C48.5245 32.2395 50.4383 30.7161 52.0835 28.9398C54.0955 31.2276 55.4941 34.0677 56.0221 37.2019ZM30.7983 33.0711C28.8606 32.7261 26.9784 32.1042 25.222 31.2264C26.7326 28.7735 28.8578 26.739 31.3832 25.3379L31.4028 25.344L31.4083 25.3457C31.6815 25.4318 31.9427 25.514 32.1943 25.6043C32.2876 25.6399 32.379 25.6746 32.4683 25.7084C32.8788 25.864 33.246 26.0033 33.5521 26.1452L33.6394 26.1888L33.6602 26.1985C33.8534 26.2884 34.1318 26.4211 34.3827 26.5407C34.516 26.6043 34.6416 26.6642 34.7425 26.7119L34.7463 26.714L34.8098 26.7481L34.8674 26.7796C34.9026 26.799 34.9356 26.8177 34.9676 26.8368C35.0214 26.8716 35.0694 26.8999 35.0951 26.9149C35.1422 26.9425 35.1905 26.9697 35.2304 26.9919C35.2645 27.0109 35.298 27.0293 35.323 27.0431L35.3356 27.05L35.3623 27.0647L35.3657 27.0667C35.4029 27.0881 35.448 27.1139 35.4994 27.1432C35.5492 27.1716 35.6048 27.2034 35.665 27.2379L35.7505 27.2872C35.7991 27.3152 35.8499 27.3447 35.9023 27.3754C36.0102 27.4386 36.1113 27.4989 36.1936 27.55C36.2548 27.588 36.2881 27.6101 36.3008 27.6185C36.3056 27.6217 36.3078 27.6231 36.3063 27.622L36.377 27.6756L36.456 27.7225C36.5763 27.7939 36.6948 27.8759 36.8428 27.9782L36.8441 27.9792C36.9117 28.026 36.9856 28.0771 37.0684 28.1333L37.1247 28.1715L37.1726 28.1985C37.1726 28.1985 37.1746 28.2 37.1792 28.2031C37.1871 28.2084 37.2023 28.2185 37.2257 28.2349C37.2399 28.2449 37.2573 28.2571 37.2782 28.2721C37.362 28.3321 37.4632 28.4074 37.5746 28.4911L37.8057 28.6654L37.9015 28.7373C37.9788 28.7951 38.0732 28.8653 38.1585 28.9244C39.4036 29.8766 40.5415 30.9638 41.5546 32.1622C40.4767 32.5566 39.3657 32.8602 38.2345 33.0644C35.7687 33.509 33.25 33.521 30.8068 33.0726L30.8026 33.0718L30.7983 33.0711ZM39.5 23.244C43.3458 23.244 46.8888 24.5411 49.7164 26.7209C48.2339 28.3249 46.4978 29.6909 44.5969 30.7599C43.29 29.0988 41.7779 27.6032 40.0922 26.3191L40.0515 26.2881L40.0092 26.2599L39.9977 26.2519L39.9759 26.2364L39.9613 26.2258L39.9185 26.1943C39.9041 26.1838 39.8886 26.1723 39.8722 26.16L39.8454 26.14C39.81 26.1135 39.7745 26.0868 39.7379 26.0591L39.672 26.0095L39.6085 25.9615L39.5246 25.8984C39.4097 25.812 39.2837 25.7181 39.168 25.6351C39.0871 25.5772 38.9708 25.4952 38.8521 25.4229L38.7768 25.3708C38.6224 25.2638 38.3905 25.1031 38.1794 24.9736C37.9825 24.8355 37.7164 24.6782 37.542 24.5761C37.3728 24.477 37.1904 24.373 37.0776 24.3086L36.9921 24.2597C36.9724 24.2482 36.955 24.2385 36.947 24.234L36.9454 24.2331L36.9444 24.2325L36.9075 24.2122L36.9005 24.2083L36.8857 24.2001C36.8605 24.1863 36.8354 24.1724 36.8092 24.1578L36.7749 24.1386L36.7451 24.1216L36.7372 24.1171L36.725 24.1086L36.682 24.0823C36.5251 23.9864 36.3615 23.8988 36.2738 23.8519L36.2431 23.8354L36.2054 23.8152L36.1667 23.7969C36.0893 23.7603 35.9748 23.7058 35.8449 23.6439C37.0214 23.3821 38.2446 23.244 39.5 23.244Z" fill="black"/>
</svg>
