<svg width="80" height="80" viewBox="0 0 80 80" fill="none" xmlns="http://www.w3.org/2000/svg">
<path d="M56.5472 19.5H22.4528C20.8222 19.5 19.5 20.8222 19.5 22.4528V56.5472C19.5 58.1778 20.8222 59.5 22.4528 59.5H56.5472C58.1778 59.5 59.5 58.1778 59.5 56.5472V22.4528C59.5 20.8222 58.1778 19.5 56.5472 19.5ZM31.4222 53.5778H25.4083V34.4722H31.4222V53.575V53.5778ZM28.4139 31.825C26.5 31.825 24.9472 30.3667 24.9472 28.3722C24.9472 26.3778 26.5 24.9194 28.4139 24.9194C30.3278 24.9194 31.8806 26.3778 31.8806 28.3722C31.8806 30.3667 30.3278 31.825 28.4139 31.825ZM53.5917 53.5917H47.5778V43.1583C47.5778 40.0806 46.2694 39.1306 44.5806 39.1306C42.7972 39.1306 41.0472 40.4722 41.0472 43.2361V53.5944H35.0333V34.4861H40.8167V37.1333H40.8944C41.475 35.9583 43.5083 33.95 46.6111 33.95C49.9667 33.95 53.5917 35.9417 53.5917 41.775V53.5917Z" fill="black"/>
</svg>
