<svg width="176" height="32" viewBox="0 0 176 32" fill="none" xmlns="http://www.w3.org/2000/svg">
<path d="M23.3704 12.288C23.3704 19.392 18.6984 24.384 11.9784 24.384C5.29037 24.384 0.682372 19.424 0.682372 12.288C0.682372 5.184 5.32237 0.191999 12.0104 0.191999C18.6984 0.191999 23.3704 5.152 23.3704 12.288ZM19.0504 12.288C19.0504 7.296 16.2984 4.128 12.0104 4.128C7.72237 4.128 4.97037 7.296 4.97037 12.288C4.97037 17.28 7.72237 20.448 12.0104 20.448C16.2984 20.448 19.0504 17.216 19.0504 12.288ZM25.0386 16.064C25.0386 11.168 28.2706 7.712 32.9426 7.712C37.2626 7.712 40.2066 10.112 40.6226 13.92H36.7186C36.2706 12.128 34.9586 11.2 33.1026 11.2C30.6066 11.2 28.9426 13.088 28.9426 16.064C28.9426 19.04 30.4786 20.896 32.9746 20.896C34.9266 20.896 36.3026 19.936 36.7186 18.208H40.6546C40.1746 21.888 37.1026 24.416 32.9746 24.416C28.1746 24.416 25.0386 21.088 25.0386 16.064ZM41.9924 16.064C41.9924 11.168 45.2244 7.712 49.8964 7.712C54.2164 7.712 57.1604 10.112 57.5764 13.92H53.6724C53.2244 12.128 51.9124 11.2 50.0564 11.2C47.5604 11.2 45.8964 13.088 45.8964 16.064C45.8964 19.04 47.4324 20.896 49.9284 20.896C51.8804 20.896 53.2564 19.936 53.6724 18.208H57.6084C57.1284 21.888 54.0564 24.416 49.9284 24.416C45.1284 24.416 41.9924 21.088 41.9924 16.064ZM63.7781 24H59.8741V0.191999H63.8101V10.24C64.8021 8.704 66.6581 7.712 68.9301 7.712C72.8341 7.712 74.8821 10.176 74.8821 14.272V24H70.9781V15.2C70.9781 12.544 69.6661 11.264 67.6821 11.264C65.2181 11.264 63.7781 12.992 63.7781 15.36V24ZM80.0299 5.024C78.6859 5.024 77.6299 3.968 77.6299 2.656C77.6299 1.344 78.6859 0.32 80.0299 0.32C81.3099 0.32 82.3659 1.344 82.3659 2.656C82.3659 3.968 81.3099 5.024 80.0299 5.024ZM78.0779 24V8.192H81.9819V24H78.0779ZM89.3114 24H85.4394V0.191999H89.3114V24ZM103.487 8.192H107.391V24H103.775L103.487 21.888C102.527 23.392 100.479 24.416 98.3666 24.416C94.7186 24.416 92.5746 21.952 92.5746 18.08V8.192H96.4786V16.704C96.4786 19.712 97.6626 20.928 99.8386 20.928C102.303 20.928 103.487 19.488 103.487 16.48V8.192ZM110.783 31.328V8.192H114.399L114.655 10.592C115.615 8.768 117.695 7.712 120.095 7.712C124.543 7.712 127.487 10.944 127.487 15.904C127.487 20.832 124.799 24.416 120.095 24.416C117.727 24.416 115.679 23.488 114.687 21.888V31.328H110.783ZM114.719 16.096C114.719 18.944 116.479 20.896 119.167 20.896C121.919 20.896 123.551 18.912 123.551 16.096C123.551 13.28 121.919 11.264 119.167 11.264C116.479 11.264 114.719 13.248 114.719 16.096ZM129.027 16.064C129.027 11.136 132.579 7.744 137.475 7.744C142.371 7.744 145.923 11.136 145.923 16.064C145.923 20.992 142.371 24.384 137.475 24.384C132.579 24.384 129.027 20.992 129.027 16.064ZM132.931 16.064C132.931 18.944 134.787 20.896 137.475 20.896C140.163 20.896 142.019 18.944 142.019 16.064C142.019 13.184 140.163 11.232 137.475 11.232C134.787 11.232 132.931 13.184 132.931 16.064ZM147.45 16.064C147.45 11.136 151.002 7.744 155.898 7.744C160.794 7.744 164.346 11.136 164.346 16.064C164.346 20.992 160.794 24.384 155.898 24.384C151.002 24.384 147.45 20.992 147.45 16.064ZM151.354 16.064C151.354 18.944 153.21 20.896 155.898 20.896C158.586 20.896 160.442 18.944 160.442 16.064C160.442 13.184 158.586 11.232 155.898 11.232C153.21 11.232 151.354 13.184 151.354 16.064ZM165.17 8.192H167.442V6.272C167.442 1.984 169.714 0.191999 173.138 0.191999C173.746 0.191999 174.482 0.223999 175.154 0.351999V3.68H173.778C171.794 3.68 171.314 4.704 171.314 6.272V8.192H175.09V11.456H171.314V24H167.442V11.456H165.17V8.192Z" fill="white"/>
</svg>
